{
  "accessors": [
    {
      "bufferView": 2,
      "componentType": 5126,
      "count": 20984,
      "max": [
        7.545722484588623,
        7.183917999267578,
        5.758817195892334
      ],
      "min": [
        -7.353572368621826,
        -4.258709907531738,
        -5.623702049255371
      ],
      "type": "VEC3"
    },
    {
      "bufferView": 2,
      "byteOffset": 251808,
      "componentType": 5126,
      "count": 20984,
      "max": [
        0.9987782835960388,
        0.9999603033065796,
        0.999841034412384
      ],
      "min": [
        -0.9995931386947632,
        -0.9999348521232605,
        -0.9995705485343933
      ],
      "type": "VEC3"
    },
    {
      "bufferView": 1,
      "componentType": 5126,
      "count": 20984,
      "max": [
        0.9984217286109924,
        0.9633334279060364
      ],
      "min": [
        0.001741844811476767,
        0.0022871338296681643
      ],
      "type": "VEC2"
    },
    {
      "bufferView": 1,
      "byteOffset": 167872,
      "componentType": 5126,
      "count": 20984,
      "max": [
        0.9984217286109924,
        0.9633334279060364
      ],
      "min": [
        0.001741844811476767,
        0.0022871338296681643
      ],
      "type": "VEC2"
    },
    {
      "bufferView": 0,
      "componentType": 5125,
      "count": 121788,
      "type": "SCALAR"
    }
  ],
  "asset": {
    "extras": {
      "author": "Zacxophone (https://sketchfab.com/Zacxophone)",
      "license": "SKETCHFAB Standard (https://sketchfab.com/licenses)",
      "source": "https://sketchfab.com/3d-models/maple-leaf-c06c7cf93eda435dbc5cccf7511907ac",
      "title": "Maple Leaf"
    },
    "generator": "Sketchfab-15.49.0",
    "version": "2.0"
  },
  "bufferViews": [
    {
      "buffer": 0,
      "byteLength": 487152,
      "name": "floatBufferViews",
      "target": 34963
    },
    {
      "buffer": 0,
      "byteLength": 335744,
      "byteOffset": 487152,
      "byteStride": 8,
      "name": "floatBufferViews",
      "target": 34962
    },
    {
      "buffer": 0,
      "byteLength": 503616,
      "byteOffset": 822896,
      "byteStride": 12,
      "name": "floatBufferViews",
      "target": 34962
    }
  ],
  "buffers": [
    {
      "byteLength": 1326512,
      "uri": "scene.bin"
    }
  ],
  "extensionsUsed": [
    "KHR_materials_unlit"
  ],
  "images": [
    {
      "uri": "textures/leaf_baseColor.png"
    }
  ],
  "materials": [
    {
      "doubleSided": true,
      "extensions": {
        "KHR_materials_unlit": {}
      },
      "name": "leaf",
      "pbrMetallicRoughness": {
        "baseColorTexture": {
          "index": 0
        },
        "metallicFactor": 0.0
      }
    }
  ],
  "meshes": [
    {
      "name": "leaf.001_leaf_0",
      "primitives": [
        {
          "attributes": {
            "NORMAL": 1,
            "POSITION": 0,
            "TEXCOORD_0": 2,
            "TEXCOORD_1": 3
          },
          "indices": 4,
          "material": 0,
          "mode": 4
        }
      ]
    }
  ],
  "nodes": [
    {
      "children": [
        1
      ],
      "matrix": [
        1.0,
        0.0,
        0.0,
        0.0,
        0.0,
        2.220446049250313e-16,
        -1.0,
        0.0,
        0.0,
        1.0,
        2.220446049250313e-16,
        0.0,
        0.0,
        0.0,
        0.0,
        1.0
      ],
      "name": "Sketchfab_model"
    },
    {
      "children": [
        2
      ],
      "matrix": [
        0.009999999776482582,
        0.0,
        0.0,
        0.0,
        0.0,
        0.0,
        0.009999999776482582,
        0.0,
        0.0,
        -0.009999999776482582,
        0.0,
        0.0,
        0.0,
        0.0,
        0.0,
        1.0
      ],
      "name": "bcc4c33a1702431f98905a35baab32db.fbx"
    },
    {
      "children": [
        3
      ],
      "name": "RootNode"
    },
    {
      "children": [
        4
      ],
      "matrix": [
        29.0316595400817,
        -35.457316239520196,
        -88.88161491241844,
        0.0,
        -79.73911899348678,
        -60.31363063605464,
        -1.9846565547058381,
        0.0,
        -52.90402297076604,
        71.44959541234812,
        -45.78339949064976,
        0.0,
        2.859439234329485e-14,
        561.2763671875,
        -4.859537124633789,
        1.0
      ],
      "name": "leaf.001"
    },
    {
      "mesh": 0,
      "name": "leaf.001_leaf_0"
    }
  ],
  "samplers": [
    {
      "magFilter": 9729,
      "minFilter": 9987,
      "wrapS": 10497,
      "wrapT": 10497
    }
  ],
  "scene": 0,
  "scenes": [
    {
      "name": "Sketchfab_Scene",
      "nodes": [
        0
      ]
    }
  ],
  "textures": [
    {
      "sampler": 0,
      "source": 0
    }
  ]
}
